{
  "accessors": [
    {
      "bufferView": 2,
      "componentType": 5126,
      "count": 10488,
      "max": [
        24.29861068725586,
        30.675018310546875,
        95.92788696289063
      ],
      "min": [
        -24.298603057861328,
        -24.973621368408203,
        -7.999999979801942e-06
      ],
      "type": "VEC3"
    },
    {
      "bufferView": 2,
      "byteOffset": 125856,
      "componentType": 5126,
      "count": 10488,
      "max": [
        1.0,
        1.0,
        1.0
      ],
      "min": [
        -1.0,
        -1.0,
        -1.0
      ],
      "type": "VEC3"
    },
    {
      "bufferView": 3,
      "componentType": 5126,
      "count": 10488,
      "max": [
        1.0,
        1.0,
        1.0,
        1.0
      ],
      "min": [
        -1.0,
        -1.0,
        -1.0,
        -1.0
      ],
      "type": "VEC4"
    },
    {
      "bufferView": 1,
      "componentType": 5126,
      "count": 10488,
      "max": [
        1.3809080123901367,
        1.365270972251892
      ],
      "min": [
        -0.3809080123901367,
        -0.376583993434906
      ],
      "type": "VEC2"
    },
    {
      "bufferView": 0,
      "componentType": 5125,
      "count": 37929,
      "type": "SCALAR"
    },
    {
      "bufferView": 2,
      "byteOffset": 251712,
      "componentType": 5126,
      "count": 1271,
      "max": [
        21.400001525878906,
        27.89794158935547,
        92.22883605957031
      ],
      "min": [
        -21.399995803833008,
        -22.6217041015625,
        42.300804138183594
      ],
      "type": "VEC3"
    },
    {
      "bufferView": 2,
      "byteOffset": 266964,
      "componentType": 5126,
      "count": 1271,
      "max": [
        1.0,
        1.0,
        1.0
      ],
      "min": [
        -1.0,
        -1.0,
        -1.0
      ],
      "type": "VEC3"
    },
    {
      "bufferView": 0,
      "byteOffset": 151716,
      "componentType": 5125,
      "count": 3342,
      "type": "SCALAR"
    },
    {
      "bufferView": 2,
      "byteOffset": 282216,
      "componentType": 5126,
      "count": 8032,
      "max": [
        23.134048461914063,
        27.51654624938965,
        92.58121490478516
      ],
      "min": [
        -23.134048461914063,
        -25.03058624267578,
        40.413230895996094
      ],
      "type": "VEC3"
    },
    {
      "bufferView": 2,
      "byteOffset": 378600,
      "componentType": 5126,
      "count": 8032,
      "max": [
        0.9999593496322632,
        1.0,
        0.9999998807907104
      ],
      "min": [
        -0.9999593496322632,
        -1.0,
        -1.0
      ],
      "type": "VEC3"
    },
    {
      "bufferView": 3,
      "byteOffset": 167808,
      "componentType": 5126,
      "count": 8032,
      "max": [
        0.9999990463256836,
        0.9992899894714355,
        0.9998745322227478,
        1.0
      ],
      "min": [
        -1.0,
        -0.9991840720176697,
        -0.9998942017555237,
        -1.0
      ],
      "type": "VEC4"
    },
    {
      "bufferView": 1,
      "byteOffset": 83904,
      "componentType": 5126,
      "count": 8032,
      "max": [
        1.4633619785308838,
        1.0537240505218506
      ],
      "min": [
        -0.41332700848579407,
        -0.10479000210762024
      ],
      "type": "VEC2"
    },
    {
      "bufferView": 0,
      "byteOffset": 165084,
      "componentType": 5125,
      "count": 43602,
      "type": "SCALAR"
    },
    {
      "bufferView": 2,
      "byteOffset": 474984,
      "componentType": 5126,
      "count": 2340,
      "max": [
        16.90709686279297,
        30.322124481201172,
        91.8638916015625
      ],
      "min": [
        -16.876262664794922,
        23.6762752532959,
        55.93897247314453
      ],
      "type": "VEC3"
    },
    {
      "bufferView": 2,
      "byteOffset": 503064,
      "componentType": 5126,
      "count": 2340,
      "max": [
        0.9848542213439941,
        0.9997588992118835,
        0.9994356632232666
      ],
      "min": [
        -0.985093891620636,
        -0.9990310668945313,
        -0.9994068145751953
      ],
      "type": "VEC3"
    },
    {
      "bufferView": 3,
      "byteOffset": 296320,
      "componentType": 5126,
      "count": 2340,
      "max": [
        0.9999989867210388,
        0.9880521893501282,
        0.9644639492034912,
        1.0
      ],
      "min": [
        -0.9999976754188538,
        -0.990553081035614,
        -0.9716418981552124,
        1.0
      ],
      "type": "VEC4"
    },
    {
      "bufferView": 1,
      "byteOffset": 148160,
      "componentType": 5126,
      "count": 2340,
      "max": [
        1.4248770475387573,
        0.9750769734382629
      ],
      "min": [
        -0.6522070169448853,
        -0.10468000173568726
      ],
      "type": "VEC2"
    },
    {
      "bufferView": 0,
      "byteOffset": 339492,
      "componentType": 5125,
      "count": 9240,
      "type": "SCALAR"
    }
  ],
  "asset": {
    "extras": {
      "author": "Interiors3D (https://sketchfab.com/Interiors3D)",
      "license": "CC-BY-4.0 (http://creativecommons.org/licenses/by/4.0/)",
      "source": "https://sketchfab.com/3d-models/fc85-h65-1e459bc2e9eb4b81ba83b56ec737d62c",
      "title": "FC85-H65"
    },
    "generator": "Sketchfab-10.42.0",
    "version": "2.0"
  },
  "bufferViews": [
    {
      "buffer": 0,
      "byteLength": 376452,
      "name": "floatBufferViews",
      "target": 34963
    },
    {
      "buffer": 0,
      "byteLength": 166880,
      "byteOffset": 376452,
      "byteStride": 8,
      "name": "floatBufferViews",
      "target": 34962
    },
    {
      "buffer": 0,
      "byteLength": 531144,
      "byteOffset": 543332,
      "byteStride": 12,
      "name": "floatBufferViews",
      "target": 34962
    },
    {
      "buffer": 0,
      "byteLength": 333760,
      "byteOffset": 1074476,
      "byteStride": 16,
      "name": "floatBufferViews",
      "target": 34962
    }
  ],
  "buffers": [
    {
      "byteLength": 1408236,
      "uri": "scene.bin"
    }
  ],
  "images": [
    {
      "uri": "textures/Paint_baseColor.jpeg"
    },
    {
      "uri": "textures/Paint_metallicRoughness.png"
    },
    {
      "uri": "textures/Paint_normal.png"
    },
    {
      "uri": "textures/fabric.002_baseColor.jpeg"
    },
    {
      "uri": "textures/fabric.002_metallicRoughness.png"
    },
    {
      "uri": "textures/fabric.002_normal.png"
    }
  ],
  "materials": [
    {
      "doubleSided": true,
      "name": "Paint",
      "normalTexture": {
        "index": 2
      },
      "pbrMetallicRoughness": {
        "baseColorTexture": {
          "index": 0
        },
        "metallicFactor": 0.0,
        "metallicRoughnessTexture": {
          "index": 1
        }
      }
    },
    {
      "doubleSided": true,
      "name": "back",
      "pbrMetallicRoughness": {
        "metallicFactor": 0.0
      }
    },
    {
      "doubleSided": true,
      "name": "fabric.002",
      "normalTexture": {
        "index": 5
      },
      "pbrMetallicRoughness": {
        "baseColorTexture": {
          "index": 3
        },
        "metallicFactor": 0.0,
        "metallicRoughnessTexture": {
          "index": 4
        }
      }
    }
  ],
  "meshes": [
    {
      "name": "Object_0",
      "primitives": [
        {
          "attributes": {
            "NORMAL": 1,
            "POSITION": 0,
            "TANGENT": 2,
            "TEXCOORD_0": 3
          },
          "indices": 4,
          "material": 0,
          "mode": 4
        }
      ]
    },
    {
      "name": "Object_1",
      "primitives": [
        {
          "attributes": {
            "NORMAL": 6,
            "POSITION": 5
          },
          "indices": 7,
          "material": 1,
          "mode": 4
        }
      ]
    },
    {
      "name": "Object_2",
      "primitives": [
        {
          "attributes": {
            "NORMAL": 9,
            "POSITION": 8,
            "TANGENT": 10,
            "TEXCOORD_0": 11
          },
          "indices": 12,
          "material": 2,
          "mode": 4
        }
      ]
    },
    {
      "name": "Object_3",
      "primitives": [
        {
          "attributes": {
            "NORMAL": 14,
            "POSITION": 13,
            "TANGENT": 15,
            "TEXCOORD_0": 16
          },
          "indices": 17,
          "material": 2,
          "mode": 4
        }
      ]
    }
  ],
  "nodes": [
    {
      "children": [
        1
      ],
      "matrix": [
        1.0,
        0.0,
        0.0,
        0.0,
        0.0,
        2.220446049250313e-16,
        -1.0,
        0.0,
        0.0,
        1.0,
        2.220446049250313e-16,
        0.0,
        0.0,
        0.0,
        0.0,
        1.0
      ],
      "name": "Sketchfab_model"
    },
    {
      "children": [
        2,
        3,
        4,
        5
      ],
      "name": "W06 - FC85-H65 - Sketchfab - mesh.obj.cleaner.materialmerger.gles"
    },
    {
      "mesh": 0,
      "name": "Object_2"
    },
    {
      "mesh": 1,
      "name": "Object_3"
    },
    {
      "mesh": 2,
      "name": "Object_4"
    },
    {
      "mesh": 3,
      "name": "Object_5"
    }
  ],
  "samplers": [
    {
      "magFilter": 9729,
      "minFilter": 9987,
      "wrapS": 10497,
      "wrapT": 10497
    }
  ],
  "scene": 0,
  "scenes": [
    {
      "name": "Sketchfab_Scene",
      "nodes": [
        0
      ]
    }
  ],
  "textures": [
    {
      "sampler": 0,
      "source": 0
    },
    {
      "sampler": 0,
      "source": 1
    },
    {
      "sampler": 0,
      "source": 2
    },
    {
      "sampler": 0,
      "source": 3
    },
    {
      "sampler": 0,
      "source": 4
    },
    {
      "sampler": 0,
      "source": 5
    }
  ]
}
